<svg width="15" height="25" viewBox="0 0 15 25" fill="none" xmlns="http://www.w3.org/2000/svg">
<path d="M14.2514 1.4941C14.5896 1.83246 14.7797 2.29131 14.7797 2.76974C14.7797 3.24818 14.5896 3.70703 14.2514 4.04539L5.32006 12.9767L14.2514 21.908C14.5801 22.2483 14.7619 22.7041 14.7578 23.1772C14.7537 23.6503 14.5639 24.1028 14.2294 24.4374C13.8949 24.7719 13.4423 24.9616 12.9692 24.9658C12.4962 24.9699 12.0404 24.788 11.7001 24.4593L1.49312 14.2524C1.15486 13.914 0.964844 13.4552 0.964844 12.9767C0.964844 12.4983 1.15486 12.0394 1.49312 11.7011L11.7001 1.4941C12.0384 1.15584 12.4973 0.96582 12.9757 0.96582C13.4542 0.96582 13.913 1.15584 14.2514 1.4941V1.4941Z" fill="white"/>
</svg>
